<svg xmlns="http://www.w3.org/2000/svg" viewBox="0 0 300 64" height="40">
  <g transform="translate(2,6)">
    <!-- Üç katmanı temsil eden triad işaret: Kids / Medical / Premium -->
    <path d="M26 0 C34 0 40 6 40 14 C40 22 34 26 26 26 C18 26 12 22 12 14 C12 6 18 0 26 0 Z"
          fill="#2ea3c7" transform="rotate(0 26 22)"/>
    <path d="M26 0 C34 0 40 6 40 14 C40 22 34 26 26 26 C18 26 12 22 12 14 C12 6 18 0 26 0 Z"
          fill="#0e7c66" opacity="0.92" transform="rotate(120 26 22)"/>
    <path d="M26 0 C34 0 40 6 40 14 C40 22 34 26 26 26 C18 26 12 22 12 14 C12 6 18 0 26 0 Z"
          fill="#b8962f" opacity="0.92" transform="rotate(240 26 22)"/>
    <circle cx="26" cy="22" r="5.5" fill="#14304a"/>
  </g>
  <text x="58" y="30" font-family="Segoe UI, Arial, sans-serif" font-size="24" font-weight="800" fill="#14304a">Eliva</text>
  <text x="58" y="45" font-family="Segoe UI, Arial, sans-serif" font-size="10" font-weight="700" letter-spacing="2.5" fill="#6b7c86">CREATIVE AGENCY</text>
</svg>
