<svg xmlns="http://www.w3.org/2000/svg" viewBox="0 0 52 52">
  <rect width="52" height="52" rx="12" fill="#14304a"/>
  <g transform="translate(8,7)">
    <path d="M18 0 C24.6 0 30 5.4 30 12 C30 18.6 24.6 22 18 22 C11.4 22 6 18.6 6 12 C6 5.4 11.4 0 18 0 Z"
          fill="#2ea3c7" transform="rotate(0 18 16)"/>
    <path d="M18 0 C24.6 0 30 5.4 30 12 C30 18.6 24.6 22 18 22 C11.4 22 6 18.6 6 12 C6 5.4 11.4 0 18 0 Z"
          fill="#3fb894" opacity="0.95" transform="rotate(120 18 16)"/>
    <path d="M18 0 C24.6 0 30 5.4 30 12 C30 18.6 24.6 22 18 22 C11.4 22 6 18.6 6 12 C6 5.4 11.4 0 18 0 Z"
          fill="#d8b64a" opacity="0.95" transform="rotate(240 18 16)"/>
    <circle cx="18" cy="16" r="4" fill="#0c1b28"/>
  </g>
</svg>
